<svg width="32" height="32" viewBox="0 0 32 32" fill="none" xmlns="http://www.w3.org/2000/svg">
<path d="M7.99999 18.6667C7.99999 19.8222 8.23333 20.9167 8.7 21.95C9.16666 22.9833 9.83333 23.8889 10.7 24.6667C10.6778 24.5556 10.6667 24.4556 10.6667 24.3667V24.0667C10.6667 23.3556 10.8 22.6889 11.0667 22.0667C11.3333 21.4444 11.7222 20.8778 12.2333 20.3667L16 16.6667L19.7667 20.3667C20.2778 20.8778 20.6667 21.4444 20.9333 22.0667C21.2 22.6889 21.3333 23.3556 21.3333 24.0667V24.3667C21.3333 24.4556 21.3222 24.5556 21.3 24.6667C22.1667 23.8889 22.8333 22.9833 23.3 21.95C23.7667 20.9167 24 19.8222 24 18.6667C24 17.5556 23.7944 16.5056 23.3833 15.5167C22.9722 14.5278 22.3778 13.6444 21.6 12.8667C21.1556 13.1556 20.6889 13.3722 20.2 13.5167C19.7111 13.6611 19.2111 13.7333 18.7 13.7333C17.3222 13.7333 16.1278 13.2778 15.1167 12.3667C14.1056 11.4556 13.5222 10.3333 13.3667 9C12.5 9.73333 11.7333 10.4944 11.0667 11.2833C10.4 12.0722 9.83888 12.8722 9.38333 13.6833C8.92777 14.4944 8.58333 15.3222 8.35 16.1667C8.11666 17.0111 7.99999 17.8444 7.99999 18.6667ZM16 20.4L14.1 22.2667C13.8556 22.5111 13.6667 22.7889 13.5333 23.1C13.4 23.4111 13.3333 23.7333 13.3333 24.0667C13.3333 24.7778 13.5944 25.3889 14.1167 25.9C14.6389 26.4111 15.2667 26.6667 16 26.6667C16.7333 26.6667 17.3611 26.4111 17.8833 25.9C18.4056 25.3889 18.6667 24.7778 18.6667 24.0667C18.6667 23.7111 18.6 23.3833 18.4667 23.0833C18.3333 22.7833 18.1444 22.5111 17.9 22.2667L16 20.4ZM16 4V8.4C16 9.15556 16.2611 9.78889 16.7833 10.3C17.3056 10.8111 17.9444 11.0667 18.7 11.0667C19.1 11.0667 19.4722 10.9833 19.8167 10.8167C20.1611 10.65 20.4667 10.4 20.7333 10.0667L21.3333 9.33333C22.9778 10.2667 24.2778 11.5667 25.2333 13.2333C26.1889 14.9 26.6667 16.7111 26.6667 18.6667C26.6667 21.6444 25.6333 24.1667 23.5667 26.2333C21.5 28.3 18.9778 29.3333 16 29.3333C13.0222 29.3333 10.5 28.3 8.43333 26.2333C6.36666 24.1667 5.33333 21.6444 5.33333 18.6667C5.33333 15.8 6.29444 13.0778 8.21666 10.5C10.1389 7.92222 12.7333 5.75556 16 4Z" fill="#AFB3B7"/>
</svg>
