<svg width="45" height="45" viewBox="0 0 45 45" fill="none" xmlns="http://www.w3.org/2000/svg">
    <g clip-path="url(#clip0_1_17)">
        <path d="M36.5996 20.9372H35.0893V20.8594H18.2143V28.3594H28.8109C27.2649 32.7253 23.1109 35.8594 18.2143 35.8594C12.0015 35.8594 6.96429 30.8222 6.96429 24.6094C6.96429 18.3966 12.0015 13.3594 18.2143 13.3594C21.0821 13.3594 23.6912 14.4412 25.6777 16.2084L30.9812 10.905C27.6324 7.78406 23.153 5.85938 18.2143 5.85938C7.85961 5.85938 -0.535706 14.2547 -0.535706 24.6094C-0.535706 34.9641 7.85961 43.3594 18.2143 43.3594C28.569 43.3594 36.9643 34.9641 36.9643 24.6094C36.9643 23.3522 36.8349 22.125 36.5996 20.9372Z" fill="#FBC02D"/>
        <path d="M1.62616 15.8822L7.78647 20.4C9.45335 16.2731 13.4902 13.3594 18.2143 13.3594C21.0821 13.3594 23.6912 14.4412 25.6777 16.2084L30.9812 10.905C27.6324 7.78406 23.153 5.85938 18.2143 5.85938C11.0124 5.85938 4.76678 9.92531 1.62616 15.8822Z" fill="#E53935"/>
        <path d="M18.2143 43.3593C23.0574 43.3593 27.458 41.5059 30.7852 38.4918L24.9821 33.5812C23.0996 35.0072 20.7596 35.8593 18.2143 35.8593C13.3374 35.8593 9.19647 32.7497 7.63647 28.41L1.52209 33.1209C4.62522 39.1931 10.9271 43.3593 18.2143 43.3593Z" fill="#4CAF50"/>
        <path d="M36.5996 20.9372L36.5846 20.8594H35.0893H18.2143V28.3594H28.8109C28.0684 30.4566 26.7193 32.265 24.9793 33.5822L24.9821 33.5803L30.7852 38.4909C30.3746 38.8641 36.9643 33.9844 36.9643 24.6094C36.9643 23.3522 36.8349 22.125 36.5996 20.9372Z" fill="#1565C0"/>
    </g>
    <defs>
        <clipPath id="clip0_1_17">
            <rect width="45" height="45" fill="white"/>
        </clipPath>
    </defs>
</svg>
    