<svg width="308" height="31" viewBox="0 0 308 31" fill="none" xmlns="http://www.w3.org/2000/svg">
<path d="M0.84446 13.5575V11.2301C2.03906 11.2301 2.86636 10.9933 3.32635 10.5195C3.79321 10.0458 4.02663 9.29403 4.02663 8.2642V6.31783C4.02663 4.93785 4.22917 3.8531 4.63423 3.06356C5.04616 2.27403 5.60571 1.69389 6.31286 1.32315C7.02687 0.952414 7.85073 0.718986 8.78445 0.622868C9.71816 0.519885 10.7102 0.468394 11.7607 0.468394V4.16548C10.9368 4.16548 10.3189 4.26503 9.90696 4.46413C9.50189 4.66323 9.23071 4.96532 9.09339 5.37038C8.95608 5.77545 8.88743 6.28693 8.88743 6.90483V9.54119C8.88743 10.063 8.78101 10.5642 8.56818 11.0447C8.35535 11.5253 7.96402 11.9544 7.39418 12.332C6.82434 12.7096 6.01077 13.0083 4.95348 13.228C3.90305 13.4477 2.53338 13.5575 0.84446 13.5575ZM11.7607 26.4304C10.7102 26.4304 9.71816 26.3789 8.78445 26.2759C7.85073 26.1798 7.02687 25.9464 6.31286 25.5756C5.60571 25.2049 5.04616 24.6248 4.63423 23.8352C4.22917 23.0457 4.02663 21.9609 4.02663 20.581V18.6449C4.02663 17.6082 3.79321 16.8564 3.32635 16.3896C2.86636 15.9158 2.03906 15.679 0.84446 15.679V13.3413C2.53338 13.3413 3.90305 13.4545 4.95348 13.6811C6.01077 13.9008 6.82434 14.1995 7.39418 14.5771C7.96402 14.9478 8.35535 15.3735 8.56818 15.854C8.78101 16.3346 8.88743 16.8358 8.88743 17.3576V19.994C8.88743 20.6119 8.95608 21.1233 9.09339 21.5284C9.23071 21.9335 9.50189 22.2356 9.90696 22.4347C10.3189 22.6338 10.9368 22.7333 11.7607 22.7333V26.4304ZM0.84446 15.679V11.2301H4.95348V15.679H0.84446ZM13.9156 24V2.90909H22.6279C24.207 2.90909 25.5698 3.21804 26.7164 3.83594C27.8698 4.44697 28.7588 5.30173 29.3836 6.40021C30.0084 7.49183 30.3208 8.76196 30.3208 10.2106C30.3208 11.6661 30.0015 12.9396 29.363 14.0312C28.7314 15.116 27.8286 15.957 26.6546 16.5543C25.4806 17.1516 24.0869 17.4503 22.4735 17.4503H17.0977V13.4339H21.526C22.295 13.4339 22.9369 13.3001 23.4518 13.0323C23.9736 12.7646 24.3683 12.3904 24.6361 11.9098C24.9039 11.4223 25.0377 10.8559 25.0377 10.2106C25.0377 9.55836 24.9039 8.99538 24.6361 8.52166C24.3683 8.04107 23.9736 7.67034 23.4518 7.40945C22.93 7.14856 22.2881 7.01811 21.526 7.01811H19.0132V24H13.9156ZM39.9059 24.2987C38.2444 24.2987 36.8164 23.9588 35.6218 23.2791C34.4341 22.5926 33.5175 21.6383 32.8722 20.4162C32.2337 19.1873 31.9144 17.7627 31.9144 16.1424C31.9144 14.5153 32.2337 13.0907 32.8722 11.8686C33.5175 10.6397 34.4341 9.68537 35.6218 9.00568C36.8164 8.31913 38.2444 7.97585 39.9059 7.97585C41.5674 7.97585 42.992 8.31913 44.1797 9.00568C45.3743 9.68537 46.2908 10.6397 46.9293 11.8686C47.5747 13.0907 47.8974 14.5153 47.8974 16.1424C47.8974 17.7627 47.5747 19.1873 46.9293 20.4162C46.2908 21.6383 45.3743 22.5926 44.1797 23.2791C42.992 23.9588 41.5674 24.2987 39.9059 24.2987ZM39.9368 20.4986C40.541 20.4986 41.0524 20.3132 41.4712 19.9425C41.89 19.5717 42.2093 19.0568 42.429 18.3977C42.6555 17.7386 42.7688 16.9766 42.7688 16.1115C42.7688 15.2327 42.6555 14.4638 42.429 13.8047C42.2093 13.1456 41.89 12.6307 41.4712 12.2599C41.0524 11.8892 40.541 11.7038 39.9368 11.7038C39.312 11.7038 38.7834 11.8892 38.3509 12.2599C37.9252 12.6307 37.5991 13.1456 37.3725 13.8047C37.1528 14.4638 37.043 15.2327 37.043 16.1115C37.043 16.9766 37.1528 17.7386 37.3725 18.3977C37.5991 19.0568 37.9252 19.5717 38.3509 19.9425C38.7834 20.3132 39.312 20.4986 39.9368 20.4986ZM64.2871 13.0117L59.6632 13.1353C59.6151 12.8058 59.4847 12.514 59.2718 12.2599C59.059 11.9991 58.781 11.7965 58.4377 11.6523C58.1013 11.5013 57.7099 11.4258 57.2637 11.4258C56.6801 11.4258 56.1824 11.5425 55.7704 11.7759C55.3654 12.0094 55.1663 12.3252 55.1731 12.7234C55.1663 13.0323 55.2898 13.3001 55.5439 13.5266C55.8047 13.7532 56.2682 13.9351 56.9341 14.0724L59.9824 14.6491C61.5615 14.9512 62.7355 15.4524 63.5044 16.1527C64.2802 16.853 64.6716 17.7798 64.6784 18.9332C64.6716 20.018 64.3489 20.962 63.7104 21.7653C63.0788 22.5685 62.2137 23.1933 61.1152 23.6396C60.0167 24.079 58.7604 24.2987 57.3461 24.2987C55.0873 24.2987 53.3057 23.8352 52.0012 22.9084C50.7037 21.9747 49.9622 20.7251 49.7768 19.1598L54.7509 19.0362C54.8607 19.6129 55.1457 20.0523 55.6056 20.3544C56.0656 20.6565 56.6526 20.8075 57.3667 20.8075C58.012 20.8075 58.5372 20.6874 58.9423 20.4471C59.3474 20.2068 59.5533 19.8875 59.5602 19.4893C59.5533 19.1323 59.3954 18.8474 59.0865 18.6346C58.7775 18.4149 58.2935 18.2433 57.6344 18.1197L54.8745 17.5945C53.2885 17.3061 52.1077 16.774 51.3319 15.9982C50.556 15.2156 50.1716 14.2201 50.1784 13.0117C50.1716 11.9544 50.4531 11.0516 51.0229 10.3033C51.5927 9.54806 52.4029 8.97135 53.4533 8.57315C54.5037 8.17495 55.743 7.97585 57.171 7.97585C59.313 7.97585 61.002 8.42554 62.2377 9.32493C63.4735 10.2174 64.1567 11.4464 64.2871 13.0117ZM76.0864 8.18182V11.8892H66.1073V8.18182H76.0864ZM68.1979 4.39205H73.2338V19.0259C73.2338 19.3349 73.2818 19.5855 73.3779 19.7777C73.4809 19.9631 73.6285 20.0969 73.8208 20.1793C74.013 20.2549 74.243 20.2926 74.5107 20.2926C74.703 20.2926 74.9055 20.2754 75.1183 20.2411C75.338 20.1999 75.5028 20.1656 75.6127 20.1381L76.3747 23.7734C76.1344 23.8421 75.7946 23.9279 75.3552 24.0309C74.9227 24.1339 74.4043 24.1991 73.8002 24.2266C72.6193 24.2815 71.6066 24.1442 70.7622 23.8146C69.9246 23.4782 69.2826 22.9564 68.8364 22.2493C68.397 21.5421 68.1842 20.6531 68.1979 19.582V4.39205Z" fill="white"/>
<path d="M90.6636 24.2266C89.4965 24.2266 88.4358 23.9245 87.4814 23.3203C86.5271 22.7161 85.7651 21.8099 85.1952 20.6016C84.6254 19.3932 84.3405 17.8931 84.3405 16.1012C84.3405 14.2406 84.6357 12.7096 85.2261 11.5082C85.8166 10.3067 86.5889 9.41761 87.5432 8.84091C88.5044 8.2642 89.5377 7.97585 90.643 7.97585C91.4738 7.97585 92.1843 8.12003 92.7748 8.40838C93.3652 8.68987 93.8527 9.05374 94.2371 9.5C94.6216 9.94626 94.9134 10.4097 95.1125 10.8903H95.2155V2.90909H100.251V24H95.267V21.4357H95.1125C94.8997 21.9232 94.5976 22.3797 94.2062 22.8054C93.8149 23.2311 93.324 23.5743 92.7336 23.8352C92.15 24.0961 91.46 24.2266 90.6636 24.2266ZM92.4143 20.3029C93.0254 20.3029 93.5471 20.1313 93.9797 19.788C94.4122 19.4379 94.7452 18.947 94.9786 18.3153C95.212 17.6837 95.3287 16.9422 95.3287 16.0909C95.3287 15.2259 95.212 14.4809 94.9786 13.8562C94.752 13.2314 94.4191 12.7508 93.9797 12.4144C93.5471 12.078 93.0254 11.9098 92.4143 11.9098C91.7896 11.9098 91.2609 12.0814 90.8284 12.4247C90.3959 12.768 90.0663 13.252 89.8398 13.8768C89.6201 14.5015 89.5102 15.2396 89.5102 16.0909C89.5102 16.9422 89.6235 17.6837 89.8501 18.3153C90.0766 18.947 90.4027 19.4379 90.8284 19.788C91.2609 20.1313 91.7896 20.3029 92.4143 20.3029ZM110.83 24.2987C109.176 24.2987 107.748 23.9725 106.546 23.3203C105.352 22.6612 104.432 21.7241 103.786 20.5089C103.148 19.2868 102.828 17.8348 102.828 16.1527C102.828 14.5187 103.151 13.0907 103.797 11.8686C104.442 10.6397 105.352 9.68537 106.526 9.00568C107.7 8.31913 109.083 7.97585 110.676 7.97585C111.802 7.97585 112.832 8.15092 113.765 8.50106C114.699 8.85121 115.506 9.36955 116.185 10.0561C116.865 10.7427 117.394 11.5906 117.771 12.5998C118.149 13.6022 118.338 14.7521 118.338 16.0497V17.3061H104.589V14.3814H113.652C113.645 13.8459 113.518 13.3687 113.271 12.9499C113.024 12.5311 112.684 12.205 112.251 11.9716C111.826 11.7313 111.335 11.6112 110.779 11.6112C110.216 11.6112 109.711 11.7382 109.265 11.9922C108.819 12.2393 108.465 12.5792 108.204 13.0117C107.943 13.4374 107.806 13.9214 107.792 14.4638V17.44C107.792 18.0853 107.919 18.6518 108.173 19.1392C108.427 19.6198 108.788 19.994 109.255 20.2617C109.721 20.5295 110.278 20.6634 110.923 20.6634C111.369 20.6634 111.774 20.6016 112.138 20.478C112.502 20.3544 112.814 20.1725 113.075 19.9322C113.336 19.6919 113.532 19.3967 113.662 19.0465L118.286 19.1804C118.094 20.2171 117.672 21.1199 117.02 21.8888C116.374 22.6509 115.526 23.2448 114.476 23.6705C113.425 24.0893 112.21 24.2987 110.83 24.2987ZM135.829 8.18182L130.402 24H124.635L119.218 8.18182H124.522L127.436 19.0774H127.601L130.526 8.18182H135.829ZM147.636 15.5863V17.924C146.449 17.924 145.621 18.1609 145.154 18.6346C144.688 19.1014 144.454 19.8532 144.454 20.8899V22.826C144.454 24.206 144.248 25.2907 143.836 26.0803C143.431 26.8698 142.872 27.4499 142.158 27.8207C141.451 28.1914 140.63 28.4248 139.696 28.521C138.77 28.6239 137.777 28.6754 136.72 28.6754V24.9783C137.544 24.9783 138.158 24.8788 138.564 24.6797C138.975 24.4806 139.25 24.1785 139.387 23.7734C139.525 23.3684 139.593 22.8569 139.593 22.239V19.6026C139.593 19.0808 139.7 18.5797 139.913 18.0991C140.125 17.6185 140.517 17.1928 141.087 16.8221C141.656 16.4445 142.467 16.1458 143.517 15.9261C144.574 15.6996 145.947 15.5863 147.636 15.5863ZM136.72 2.71342C137.777 2.71342 138.77 2.76491 139.696 2.8679C140.63 2.96401 141.451 3.19744 142.158 3.56818C142.872 3.93892 143.431 4.51906 143.836 5.30859C144.248 6.09813 144.454 7.18288 144.454 8.56285V10.5092C144.454 11.5391 144.688 12.2908 145.154 12.7646C145.621 13.2383 146.449 13.4751 147.636 13.4751V15.8026C145.947 15.8026 144.574 15.6927 143.517 15.473C142.467 15.2533 141.656 14.9547 141.087 14.5771C140.517 14.1995 140.125 13.7704 139.913 13.2898C139.7 12.8092 139.593 12.308 139.593 11.7862V9.14986C139.593 8.53196 139.525 8.02048 139.387 7.61541C139.25 7.21035 138.975 6.90826 138.564 6.70916C138.158 6.51006 137.544 6.41051 136.72 6.41051V2.71342ZM147.636 13.4751V17.924H143.527V13.4751H147.636Z" fill="#5A636A"/>
<path d="M172.301 15.0909V17.6477H165.284V15.0909H172.301ZM166.747 26V14.5369C166.747 13.6941 166.906 12.9957 167.223 12.4418C167.54 11.883 167.981 11.4664 168.544 11.1918C169.107 10.9124 169.759 10.7727 170.497 10.7727C170.98 10.7727 171.435 10.8106 171.861 10.8864C172.292 10.9574 172.611 11.0213 172.82 11.0781L172.266 13.6207C172.138 13.5781 171.982 13.5426 171.797 13.5142C171.617 13.4858 171.446 13.4716 171.286 13.4716C170.878 13.4716 170.599 13.5616 170.447 13.7415C170.296 13.9214 170.22 14.1676 170.22 14.4801V26H166.747ZM178.713 26.206C177.567 26.206 176.582 25.9716 175.758 25.5028C174.939 25.0294 174.307 24.3712 173.862 23.5284C173.422 22.6809 173.201 21.6984 173.201 20.581C173.201 19.4588 173.422 18.4763 173.862 17.6335C174.307 16.786 174.939 16.1278 175.758 15.6591C176.582 15.1856 177.567 14.9489 178.713 14.9489C179.859 14.9489 180.841 15.1856 181.66 15.6591C182.484 16.1278 183.116 16.786 183.556 17.6335C184.002 18.4763 184.224 19.4588 184.224 20.581C184.224 21.6984 184.002 22.6809 183.556 23.5284C183.116 24.3712 182.484 25.0294 181.66 25.5028C180.841 25.9716 179.859 26.206 178.713 26.206ZM178.734 23.5852C179.151 23.5852 179.503 23.4574 179.792 23.2017C180.081 22.946 180.301 22.5909 180.453 22.1364C180.609 21.6818 180.687 21.1562 180.687 20.5597C180.687 19.9536 180.609 19.4233 180.453 18.9688C180.301 18.5142 180.081 18.1591 179.792 17.9034C179.503 17.6477 179.151 17.5199 178.734 17.5199C178.303 17.5199 177.939 17.6477 177.64 17.9034C177.347 18.1591 177.122 18.5142 176.966 18.9688C176.814 19.4233 176.738 19.9536 176.738 20.5597C176.738 21.1562 176.814 21.6818 176.966 22.1364C177.122 22.5909 177.347 22.946 177.64 23.2017C177.939 23.4574 178.303 23.5852 178.734 23.5852ZM186.003 26V15.0909H189.377V17.0795H189.49C189.689 16.3598 190.014 15.8248 190.463 15.4744C190.913 15.1193 191.436 14.9418 192.033 14.9418C192.194 14.9418 192.36 14.9536 192.53 14.9773C192.701 14.9962 192.859 15.027 193.006 15.0696V18.0881C192.84 18.0312 192.623 17.9863 192.353 17.9531C192.087 17.92 191.851 17.9034 191.642 17.9034C191.23 17.9034 190.859 17.9957 190.527 18.1804C190.201 18.3603 189.943 18.6136 189.753 18.9403C189.569 19.2623 189.476 19.6411 189.476 20.0767V26H186.003ZM202.702 26.1562C201.897 26.1562 201.166 25.9479 200.508 25.5312C199.85 25.1146 199.324 24.4896 198.931 23.6562C198.538 22.8229 198.342 21.7884 198.342 20.5526C198.342 19.2694 198.545 18.2135 198.952 17.3849C199.36 16.5563 199.892 15.9432 200.55 15.5455C201.213 15.1477 201.926 14.9489 202.688 14.9489C203.261 14.9489 203.751 15.0483 204.158 15.2472C204.566 15.4413 204.902 15.6922 205.167 16C205.432 16.3078 205.633 16.6274 205.771 16.9588H205.842V11.4545H209.315V26H205.877V24.2315H205.771C205.624 24.5677 205.415 24.8826 205.146 25.1761C204.876 25.4697 204.537 25.7064 204.13 25.8864C203.728 26.0663 203.252 26.1562 202.702 26.1562ZM203.91 23.4503C204.331 23.4503 204.691 23.3319 204.989 23.0952C205.288 22.8537 205.517 22.5152 205.678 22.0795C205.839 21.6439 205.92 21.1326 205.92 20.5455C205.92 19.9489 205.839 19.4351 205.678 19.0043C205.522 18.5734 205.292 18.242 204.989 18.0099C204.691 17.7779 204.331 17.6619 203.91 17.6619C203.479 17.6619 203.114 17.7803 202.816 18.017C202.518 18.2538 202.29 18.5876 202.134 19.0185C201.983 19.4493 201.907 19.9583 201.907 20.5455C201.907 21.1326 201.985 21.6439 202.141 22.0795C202.298 22.5152 202.522 22.8537 202.816 23.0952C203.114 23.3319 203.479 23.4503 203.91 23.4503ZM216.61 26.206C215.469 26.206 214.484 25.9811 213.656 25.5312C212.832 25.0767 212.198 24.4304 211.752 23.5923C211.312 22.7495 211.092 21.7481 211.092 20.5881C211.092 19.4612 211.315 18.4763 211.76 17.6335C212.205 16.786 212.832 16.1278 213.642 15.6591C214.451 15.1856 215.405 14.9489 216.504 14.9489C217.28 14.9489 217.991 15.0696 218.635 15.3111C219.279 15.5526 219.835 15.91 220.304 16.3835C220.772 16.857 221.137 17.4418 221.397 18.1378C221.658 18.8291 221.788 19.6222 221.788 20.517V21.3835H212.306V19.3665H218.556C218.552 18.9972 218.464 18.6681 218.294 18.3793C218.123 18.0904 217.889 17.8655 217.591 17.7045C217.297 17.5388 216.958 17.456 216.575 17.456C216.187 17.456 215.839 17.5436 215.531 17.7188C215.223 17.8892 214.979 18.1236 214.799 18.4219C214.619 18.7154 214.525 19.0492 214.515 19.4233V21.4759C214.515 21.9209 214.603 22.3116 214.778 22.6477C214.953 22.9792 215.202 23.2372 215.524 23.4219C215.846 23.6065 216.229 23.6989 216.674 23.6989C216.982 23.6989 217.261 23.6562 217.512 23.571C217.763 23.4858 217.979 23.3603 218.159 23.1946C218.339 23.0289 218.474 22.8253 218.564 22.5838L221.752 22.6761C221.62 23.3911 221.329 24.0137 220.879 24.544C220.434 25.0696 219.849 25.4792 219.125 25.7727C218.4 26.0616 217.562 26.206 216.61 26.206ZM233.851 15.0909L230.108 26H226.131L222.395 15.0909H226.053L228.063 22.6051H228.176L230.194 15.0909H233.851ZM239.931 26.206C238.79 26.206 237.805 25.9811 236.976 25.5312C236.152 25.0767 235.518 24.4304 235.073 23.5923C234.632 22.7495 234.412 21.7481 234.412 20.5881C234.412 19.4612 234.635 18.4763 235.08 17.6335C235.525 16.786 236.152 16.1278 236.962 15.6591C237.772 15.1856 238.726 14.9489 239.824 14.9489C240.601 14.9489 241.311 15.0696 241.955 15.3111C242.599 15.5526 243.155 15.91 243.624 16.3835C244.093 16.857 244.457 17.4418 244.718 18.1378C244.978 18.8291 245.108 19.6222 245.108 20.517V21.3835H235.627V19.3665H241.877C241.872 18.9972 241.784 18.6681 241.614 18.3793C241.444 18.0904 241.209 17.8655 240.911 17.7045C240.617 17.5388 240.279 17.456 239.895 17.456C239.507 17.456 239.159 17.5436 238.851 17.7188C238.543 17.8892 238.3 18.1236 238.12 18.4219C237.94 18.7154 237.845 19.0492 237.836 19.4233V21.4759C237.836 21.9209 237.923 22.3116 238.098 22.6477C238.274 22.9792 238.522 23.2372 238.844 23.4219C239.166 23.6065 239.55 23.6989 239.995 23.6989C240.302 23.6989 240.582 23.6562 240.833 23.571C241.084 23.4858 241.299 23.3603 241.479 23.1946C241.659 23.0289 241.794 22.8253 241.884 22.5838L245.073 22.6761C244.94 23.3911 244.649 24.0137 244.199 24.544C243.754 25.0696 243.169 25.4792 242.445 25.7727C241.721 26.0616 240.882 26.206 239.931 26.206ZM250.355 11.4545V26H246.882V11.4545H250.355ZM257.658 26.206C256.512 26.206 255.527 25.9716 254.703 25.5028C253.884 25.0294 253.252 24.3712 252.807 23.5284C252.367 22.6809 252.147 21.6984 252.147 20.581C252.147 19.4588 252.367 18.4763 252.807 17.6335C253.252 16.786 253.884 16.1278 254.703 15.6591C255.527 15.1856 256.512 14.9489 257.658 14.9489C258.804 14.9489 259.786 15.1856 260.605 15.6591C261.429 16.1278 262.061 16.786 262.502 17.6335C262.947 18.4763 263.169 19.4588 263.169 20.581C263.169 21.6984 262.947 22.6809 262.502 23.5284C262.061 24.3712 261.429 25.0294 260.605 25.5028C259.786 25.9716 258.804 26.206 257.658 26.206ZM257.679 23.5852C258.096 23.5852 258.449 23.4574 258.738 23.2017C259.026 22.946 259.247 22.5909 259.398 22.1364C259.554 21.6818 259.632 21.1562 259.632 20.5597C259.632 19.9536 259.554 19.4233 259.398 18.9688C259.247 18.5142 259.026 18.1591 258.738 17.9034C258.449 17.6477 258.096 17.5199 257.679 17.5199C257.248 17.5199 256.884 17.6477 256.586 17.9034C256.292 18.1591 256.067 18.5142 255.911 18.9688C255.759 19.4233 255.684 19.9536 255.684 20.5597C255.684 21.1562 255.759 21.6818 255.911 22.1364C256.067 22.5909 256.292 22.946 256.586 23.2017C256.884 23.4574 257.248 23.5852 257.679 23.5852ZM264.949 30.0909V15.0909H268.386V16.9588H268.493C268.635 16.6274 268.836 16.3078 269.096 16C269.361 15.6922 269.698 15.4413 270.105 15.2472C270.517 15.0483 271.009 14.9489 271.582 14.9489C272.34 14.9489 273.047 15.1477 273.706 15.5455C274.368 15.9432 274.904 16.5563 275.311 17.3849C275.718 18.2135 275.922 19.2694 275.922 20.5526C275.922 21.7884 275.725 22.8229 275.332 23.6562C274.944 24.4896 274.418 25.1146 273.755 25.5312C273.097 25.9479 272.366 26.1562 271.561 26.1562C271.011 26.1562 270.536 26.0663 270.133 25.8864C269.731 25.7064 269.392 25.4697 269.118 25.1761C268.848 24.8826 268.639 24.5677 268.493 24.2315H268.422V30.0909H264.949ZM268.35 20.5455C268.35 21.1326 268.429 21.6439 268.585 22.0795C268.746 22.5152 268.975 22.8537 269.274 23.0952C269.577 23.3319 269.939 23.4503 270.36 23.4503C270.787 23.4503 271.149 23.3319 271.447 23.0952C271.745 22.8537 271.97 22.5152 272.122 22.0795C272.278 21.6439 272.356 21.1326 272.356 20.5455C272.356 19.9583 272.278 19.4493 272.122 19.0185C271.97 18.5876 271.745 18.2538 271.447 18.017C271.154 17.7803 270.791 17.6619 270.36 17.6619C269.934 17.6619 269.572 17.7779 269.274 18.0099C268.975 18.242 268.746 18.5734 268.585 19.0043C268.429 19.4351 268.35 19.9489 268.35 20.5455ZM282.841 26.206C281.7 26.206 280.715 25.9811 279.886 25.5312C279.063 25.0767 278.428 24.4304 277.983 23.5923C277.543 22.7495 277.322 21.7481 277.322 20.5881C277.322 19.4612 277.545 18.4763 277.99 17.6335C278.435 16.786 279.062 16.1278 279.872 15.6591C280.682 15.1856 281.636 14.9489 282.734 14.9489C283.511 14.9489 284.221 15.0696 284.865 15.3111C285.509 15.5526 286.065 15.91 286.534 16.3835C287.003 16.857 287.367 17.4418 287.628 18.1378C287.888 18.8291 288.018 19.6222 288.018 20.517V21.3835H278.537V19.3665H284.787C284.782 18.9972 284.695 18.6681 284.524 18.3793C284.354 18.0904 284.119 17.8655 283.821 17.7045C283.527 17.5388 283.189 17.456 282.805 17.456C282.417 17.456 282.069 17.5436 281.761 17.7188C281.454 17.8892 281.21 18.1236 281.03 18.4219C280.85 18.7154 280.755 19.0492 280.746 19.4233V21.4759C280.746 21.9209 280.833 22.3116 281.009 22.6477C281.184 22.9792 281.432 23.2372 281.754 23.4219C282.076 23.6065 282.46 23.6989 282.905 23.6989C283.213 23.6989 283.492 23.6562 283.743 23.571C283.994 23.4858 284.209 23.3603 284.389 23.1946C284.569 23.0289 284.704 22.8253 284.794 22.5838L287.983 22.6761C287.85 23.3911 287.559 24.0137 287.109 24.544C286.664 25.0696 286.08 25.4792 285.355 25.7727C284.631 26.0616 283.793 26.206 282.841 26.206ZM289.792 26V15.0909H293.166V17.0795H293.279C293.478 16.3598 293.803 15.8248 294.252 15.4744C294.702 15.1193 295.225 14.9418 295.822 14.9418C295.983 14.9418 296.149 14.9536 296.319 14.9773C296.49 14.9962 296.648 15.027 296.795 15.0696V18.0881C296.629 18.0312 296.412 17.9863 296.142 17.9531C295.877 17.92 295.64 17.9034 295.431 17.9034C295.02 17.9034 294.648 17.9957 294.316 18.1804C293.99 18.3603 293.732 18.6136 293.542 18.9403C293.358 19.2623 293.265 19.6411 293.265 20.0767V26H289.792ZM307.734 18.4219L304.545 18.5071C304.512 18.2798 304.422 18.0786 304.276 17.9034C304.129 17.7235 303.937 17.5838 303.7 17.4844C303.468 17.3802 303.198 17.3281 302.891 17.3281C302.488 17.3281 302.145 17.4086 301.861 17.5696C301.581 17.7306 301.444 17.9484 301.449 18.223C301.444 18.4361 301.529 18.6207 301.705 18.777C301.884 18.9332 302.204 19.0587 302.663 19.1534L304.766 19.5511C305.855 19.7595 306.664 20.1051 307.195 20.5881C307.73 21.071 308 21.7102 308.004 22.5057C308 23.2538 307.777 23.9048 307.337 24.4588C306.901 25.0128 306.304 25.4437 305.547 25.7514C304.789 26.0545 303.923 26.206 302.947 26.206C301.39 26.206 300.161 25.8864 299.261 25.2472C298.366 24.6032 297.855 23.7415 297.727 22.6619L301.158 22.5767C301.233 22.9744 301.43 23.2775 301.747 23.4858C302.064 23.6941 302.469 23.7983 302.962 23.7983C303.407 23.7983 303.769 23.7154 304.048 23.5497C304.328 23.384 304.47 23.1638 304.474 22.8892C304.47 22.643 304.361 22.4465 304.148 22.2997C303.935 22.1482 303.601 22.0298 303.146 21.9446L301.243 21.5824C300.149 21.3835 299.335 21.0166 298.8 20.4815C298.265 19.9418 298 19.2552 298.004 18.4219C298 17.6927 298.194 17.0701 298.587 16.554C298.98 16.0331 299.538 15.6354 300.263 15.3608C300.987 15.0862 301.842 14.9489 302.827 14.9489C304.304 14.9489 305.469 15.259 306.321 15.8793C307.173 16.4948 307.644 17.3423 307.734 18.4219Z" fill="white"/>
</svg>
