<svg width="32" height="32" viewBox="0 0 32 32" fill="none" xmlns="http://www.w3.org/2000/svg">
<path d="M4.33333 29.3333V10.6667C4.33333 9.93332 4.59444 9.30554 5.11666 8.78332C5.63888 8.2611 6.26666 7.99999 6.99999 7.99999H17.6667C18.4 7.99999 19.0278 8.2611 19.55 8.78332C20.0722 9.30554 20.3333 9.93332 20.3333 10.6667V29.3333L12.3333 25.3333L4.33333 29.3333ZM6.99999 25.3L12.3333 22.4333L17.6667 25.3V10.6667H6.99999V25.3ZM23 24V5.33332H8.33333V2.66666H23C23.7333 2.66666 24.3611 2.92777 24.8833 3.44999C25.4056 3.97221 25.6667 4.59999 25.6667 5.33332V24H23Z" fill="#AFB3B7"/>
</svg>
